<svg fill="none" height="100%" width="100%" viewBox="0 0 1200 1200" xmlns:xlink="http://www.w3.org/1999/xlink" xmlns="http://www.w3.org/2000/svg"><defs><mask id="i0"><rect fill="white" height="100%" width="100%" /><path fill="black" d="M586.003,749.359C586.003,749.359,-85.997,749.359,-85.997,749.359C-85.997,749.359,-85.997,1117.359,-85.997,1117.359C-85.997,1117.359,586.003,1117.359,586.003,1117.359C586.003,1117.359,586.003,749.359,586.003,749.359Z"><animate repeatCount="indefinite" begin="0s" keySplines="1 0 0.833 0.833; 0 0 1 1; 0.167 0.167 0.667 1" calcMode="spline" fill="freeze" dur="3s" keyTimes="0; 0.413333; 0.573333; 1" values="M0,0 L1200,0 L1200,1200 L0,1200 Z M586.003,749.359C586.003,749.359,-85.997,749.359,-85.997,749.359C-85.997,749.359,-85.997,1117.359,-85.997,1117.359C-85.997,1117.359,586.003,1117.359,586.003,1117.359C586.003,1117.359,586.003,749.359,586.003,749.359Z; M0,0 L1200,0 L1200,1200 L0,1200 Z M501.261,749.359C501.261,749.359,-85.997,749.359,-85.997,749.359C-85.997,749.359,-85.997,1117.359,-85.997,1117.359C-85.997,1117.359,501.261,1117.359,501.261,1117.359C501.261,1117.359,501.261,749.359,501.261,749.359Z; M0,0 L1200,0 L1200,1200 L0,1200 Z M428.373,749.359C428.373,749.359,-85.997,749.359,-85.997,749.359C-85.997,749.359,-85.997,1117.359,-85.997,1117.359C-85.997,1117.359,428.373,1117.359,428.373,1117.359C428.373,1117.359,428.373,749.359,428.373,749.359Z; M0,0 L1200,0 L1200,1200 L0,1200 Z M310.003,749.359C310.003,749.359,-85.997,749.359,-85.997,749.359C-85.997,749.359,-85.997,1117.359,-85.997,1117.359C-85.997,1117.359,310.003,1117.359,310.003,1117.359C310.003,1117.359,310.003,749.359,310.003,749.359Z" attributeName="d" /></path><path fill="black" d="M696.002,-88.641C696.002,-88.641,280.003,149.359,280.003,149.359C280.003,149.359,575.883,627.918,575.883,627.918C575.883,627.918,981.883,385.918,981.883,385.918C981.883,385.918,696.002,-88.641,696.002,-88.641Z"><animate repeatCount="indefinite" begin="0s" keySplines="0.167 0.167 0.667 1" calcMode="spline" fill="freeze" dur="3s" keyTimes="0; 1" values="M0,0 L1200,0 L1200,1200 L0,1200 Z M696.002,-88.641C696.002,-88.641,280.003,149.359,280.003,149.359C280.003,149.359,575.883,627.918,575.883,627.918C575.883,627.918,981.883,385.918,981.883,385.918C981.883,385.918,696.002,-88.641,696.002,-88.641Z; M0,0 L1200,0 L1200,1200 L0,1200 Z M696.002,-88.641C696.002,-88.641,280.003,149.359,280.003,149.359C280.003,149.359,658.002,791.359,658.002,791.359C658.002,791.359,1064.002,549.359,1064.002,549.359C1064.002,549.359,696.002,-88.641,696.002,-88.641Z" attributeName="d" /></path></mask><mask id="i1"><rect fill="white" height="100%" width="100%" /><path fill="black" d="M586.003,749.359C586.003,749.359,-85.997,749.359,-85.997,749.359C-85.997,749.359,-85.997,1117.359,-85.997,1117.359C-85.997,1117.359,586.003,1117.359,586.003,1117.359C586.003,1117.359,586.003,749.359,586.003,749.359Z"><animate repeatCount="indefinite" begin="0s" keySplines="1 0 0.833 0.833; 0 0 1 1; 0.167 0.167 0.667 1" calcMode="spline" fill="freeze" dur="3s" keyTimes="0; 0.413333; 0.573333; 1" values="M0,0 L1200,0 L1200,1200 L0,1200 Z M586.003,749.359C586.003,749.359,-85.997,749.359,-85.997,749.359C-85.997,749.359,-85.997,1117.359,-85.997,1117.359C-85.997,1117.359,586.003,1117.359,586.003,1117.359C586.003,1117.359,586.003,749.359,586.003,749.359Z; M0,0 L1200,0 L1200,1200 L0,1200 Z M501.261,749.359C501.261,749.359,-85.997,749.359,-85.997,749.359C-85.997,749.359,-85.997,1117.359,-85.997,1117.359C-85.997,1117.359,501.261,1117.359,501.261,1117.359C501.261,1117.359,501.261,749.359,501.261,749.359Z; M0,0 L1200,0 L1200,1200 L0,1200 Z M428.373,749.359C428.373,749.359,-85.997,749.359,-85.997,749.359C-85.997,749.359,-85.997,1117.359,-85.997,1117.359C-85.997,1117.359,428.373,1117.359,428.373,1117.359C428.373,1117.359,428.373,749.359,428.373,749.359Z; M0,0 L1200,0 L1200,1200 L0,1200 Z M310.003,749.359C310.003,749.359,-85.997,749.359,-85.997,749.359C-85.997,749.359,-85.997,1117.359,-85.997,1117.359C-85.997,1117.359,310.003,1117.359,310.003,1117.359C310.003,1117.359,310.003,749.359,310.003,749.359Z" attributeName="d" /></path><path fill="black" d="M696.002,-88.641C696.002,-88.641,280.003,149.359,280.003,149.359C280.003,149.359,575.883,627.918,575.883,627.918C575.883,627.918,981.883,385.918,981.883,385.918C981.883,385.918,696.002,-88.641,696.002,-88.641Z"><animate repeatCount="indefinite" begin="0s" keySplines="0.167 0.167 0.667 1" calcMode="spline" fill="freeze" dur="3s" keyTimes="0; 1" values="M0,0 L1200,0 L1200,1200 L0,1200 Z M696.002,-88.641C696.002,-88.641,280.003,149.359,280.003,149.359C280.003,149.359,575.883,627.918,575.883,627.918C575.883,627.918,981.883,385.918,981.883,385.918C981.883,385.918,696.002,-88.641,696.002,-88.641Z; M0,0 L1200,0 L1200,1200 L0,1200 Z M696.002,-88.641C696.002,-88.641,280.003,149.359,280.003,149.359C280.003,149.359,658.002,791.359,658.002,791.359C658.002,791.359,1064.002,549.359,1064.002,549.359C1064.002,549.359,696.002,-88.641,696.002,-88.641Z" attributeName="d" /></path></mask><mask id="i2"><rect fill="white" height="100%" width="100%" /><path fill="black" d="M586.003,749.359C586.003,749.359,-85.997,749.359,-85.997,749.359C-85.997,749.359,-85.997,1117.359,-85.997,1117.359C-85.997,1117.359,586.003,1117.359,586.003,1117.359C586.003,1117.359,586.003,749.359,586.003,749.359Z"><animate repeatCount="indefinite" begin="0s" keySplines="1 0 0.833 0.833; 0 0 1 1; 0.167 0.167 0.667 1" calcMode="spline" fill="freeze" dur="3s" keyTimes="0; 0.413333; 0.573333; 1" values="M0,0 L1200,0 L1200,1200 L0,1200 Z M586.003,749.359C586.003,749.359,-85.997,749.359,-85.997,749.359C-85.997,749.359,-85.997,1117.359,-85.997,1117.359C-85.997,1117.359,586.003,1117.359,586.003,1117.359C586.003,1117.359,586.003,749.359,586.003,749.359Z; M0,0 L1200,0 L1200,1200 L0,1200 Z M501.261,749.359C501.261,749.359,-85.997,749.359,-85.997,749.359C-85.997,749.359,-85.997,1117.359,-85.997,1117.359C-85.997,1117.359,501.261,1117.359,501.261,1117.359C501.261,1117.359,501.261,749.359,501.261,749.359Z; M0,0 L1200,0 L1200,1200 L0,1200 Z M428.373,749.359C428.373,749.359,-85.997,749.359,-85.997,749.359C-85.997,749.359,-85.997,1117.359,-85.997,1117.359C-85.997,1117.359,428.373,1117.359,428.373,1117.359C428.373,1117.359,428.373,749.359,428.373,749.359Z; M0,0 L1200,0 L1200,1200 L0,1200 Z M310.003,749.359C310.003,749.359,-85.997,749.359,-85.997,749.359C-85.997,749.359,-85.997,1117.359,-85.997,1117.359C-85.997,1117.359,310.003,1117.359,310.003,1117.359C310.003,1117.359,310.003,749.359,310.003,749.359Z" attributeName="d" /></path><path fill="black" d="M696.002,-88.641C696.002,-88.641,280.003,149.359,280.003,149.359C280.003,149.359,575.883,627.918,575.883,627.918C575.883,627.918,981.883,385.918,981.883,385.918C981.883,385.918,696.002,-88.641,696.002,-88.641Z"><animate repeatCount="indefinite" begin="0s" keySplines="0.167 0.167 0.667 1" calcMode="spline" fill="freeze" dur="3s" keyTimes="0; 1" values="M0,0 L1200,0 L1200,1200 L0,1200 Z M696.002,-88.641C696.002,-88.641,280.003,149.359,280.003,149.359C280.003,149.359,575.883,627.918,575.883,627.918C575.883,627.918,981.883,385.918,981.883,385.918C981.883,385.918,696.002,-88.641,696.002,-88.641Z; M0,0 L1200,0 L1200,1200 L0,1200 Z M696.002,-88.641C696.002,-88.641,280.003,149.359,280.003,149.359C280.003,149.359,658.002,791.359,658.002,791.359C658.002,791.359,1064.002,549.359,1064.002,549.359C1064.002,549.359,696.002,-88.641,696.002,-88.641Z" attributeName="d" /></path></mask><mask id="i3"><rect fill="white" height="100%" width="100%" /><path fill="black" d="M989.341,597.739C989.341,597.739,534.341,597.739,534.341,597.739C534.341,597.739,534.341,683.239,534.341,683.239C534.341,683.239,989.341,683.239,989.341,683.239C989.341,683.239,989.341,597.739,989.341,597.739Z"><animate repeatCount="indefinite" begin="0s" calcMode="linear" fill="freeze" dur="3s" keyTimes="0; 1" values="M0,0 L1200,0 L1200,1200 L0,1200 Z M989.341,597.739C989.341,597.739,534.341,597.739,534.341,597.739C534.341,597.739,534.341,683.239,534.341,683.239C534.341,683.239,989.341,683.239,989.341,683.239C989.341,683.239,989.341,597.739,989.341,597.739Z; M0,0 L1200,0 L1200,1200 L0,1200 Z M689.341,597.739C689.341,597.739,234.341,597.739,234.341,597.739C234.341,597.739,234.341,683.239,234.341,683.239C234.341,683.239,689.341,683.239,689.341,683.239C689.341,683.239,689.341,597.739,689.341,597.739Z" attributeName="d" /></path></mask><mask id="i4"><rect fill="white" height="100%" width="100%" /><path fill="white" d="M39.921,-58.184C-6.333,-58.184,-43.829,-9.915,-43.829,49.628C-43.829,109.171,-6.333,157.441,39.921,157.441C86.175,157.441,123.671,109.171,123.671,49.628C123.671,-9.915,86.175,-58.184,39.921,-58.184Z"><animate repeatCount="indefinite" begin="0s" keySplines="0.333 0 0.667 1; 0.333 0 0.667 1; 0 0 1 1" calcMode="spline" fill="freeze" dur="3s" keyTimes="0; 0.04; 0.08; 1" values="M39.921,-58.184C-6.333,-58.184,-43.829,-9.915,-43.829,49.628C-43.829,109.171,-6.333,157.441,39.921,157.441C86.175,157.441,123.671,109.171,123.671,49.628C123.671,-9.915,86.175,-58.184,39.921,-58.184Z; M39.921,51.503C-6.333,51.503,-43.829,50.487,-43.829,49.628C-43.829,49.94,-6.333,51.46,39.921,51.46C86.175,51.46,123.671,49.55,123.671,49.628C123.671,49.55,86.175,51.503,39.921,51.503Z; M39.921,-58.184C-6.333,-58.184,-43.829,-9.915,-43.829,49.628C-43.829,109.171,-6.333,157.441,39.921,157.441C86.175,157.441,123.671,109.171,123.671,49.628C123.671,-9.915,86.175,-58.184,39.921,-58.184Z; M39.921,-58.184C-6.333,-58.184,-43.829,-9.915,-43.829,49.628C-43.829,109.171,-6.333,157.441,39.921,157.441C86.175,157.441,123.671,109.171,123.671,49.628C123.671,-9.915,86.175,-58.184,39.921,-58.184Z" attributeName="d" /></path><path fill="white" d="M274.296,-58.184C228.042,-58.184,190.546,-9.915,190.546,49.628C190.546,109.171,228.042,157.441,274.296,157.441C320.55,157.441,358.046,109.171,358.046,49.628C358.046,-9.915,320.55,-58.184,274.296,-58.184Z"><animate repeatCount="indefinite" begin="0s" keySplines="0.333 0 0.667 1; 0.333 0 0.667 1; 0 0 1 1" calcMode="spline" fill="freeze" dur="3s" keyTimes="0; 0.04; 0.08; 1" values="M274.296,-58.184C228.042,-58.184,190.546,-9.915,190.546,49.628C190.546,109.171,228.042,157.441,274.296,157.441C320.55,157.441,358.046,109.171,358.046,49.628C358.046,-9.915,320.55,-58.184,274.296,-58.184Z; M268.046,51.503C221.792,51.503,184.296,50.487,184.296,49.628C184.296,49.94,221.792,51.46,268.046,51.46C314.3,51.46,351.796,49.55,351.796,49.628C351.796,49.55,314.3,51.503,268.046,51.503Z; M274.296,-58.184C228.042,-58.184,190.546,-9.915,190.546,49.628C190.546,109.171,228.042,157.441,274.296,157.441C320.55,157.441,358.046,109.171,358.046,49.628C358.046,-9.915,320.55,-58.184,274.296,-58.184Z; M274.296,-58.184C228.042,-58.184,190.546,-9.915,190.546,49.628C190.546,109.171,228.042,157.441,274.296,157.441C320.55,157.441,358.046,109.171,358.046,49.628C358.046,-9.915,320.55,-58.184,274.296,-58.184Z" attributeName="d" /></path></mask></defs><g transform="matrix(-0.4,-0.693,0.693,-0.4,364.905,1091.974)" id="i5"><g mask="url(#i0)" id="i6"><g id="i7" transform="matrix(1,0,0,1,681.89,462.135)"><path fill="#24c3a6" d="M294.784,194.334C294.784,194.334,-84.084,-461.885,-84.084,-461.885C-84.084,-461.885,-294.784,-340.236,-294.784,-340.236C-294.784,-340.236,168.32,461.885,168.32,461.885C168.32,461.885,294.784,194.334,294.784,194.334Z" /></g><g id="i8" transform="matrix(1,0,0,1,456.262,914.366)"><path fill="#13e5bf" d="M456.011,-121.648C456.011,-121.648,-456.011,-121.648,-456.011,-121.648C-456.011,-121.648,-456.011,121.648,-456.011,121.648C-456.011,121.648,341.012,121.648,341.012,121.648C341.012,121.648,456.011,-121.648,456.011,-121.648Z" /></g></g></g><g id="i9"><g transform="translate(790.261,361.577)"><animateTransform repeatCount="indefinite" type="translate" attributeName="transform" dur="3s" begin="0s" calcMode="spline" values="790.261 361.577; 910.261 569.423" keyTimes="0; 1" keySplines="0.333 0 0.667 1" fill="freeze" /><g transform="rotate(-120) scale(0.8,0.8) translate(-112.54,-174.3)"><g id="i8" transform="matrix(1,0,0,1,112.541,174.3)"><path fill="#13e5bf" d="M-112.29,0C-112.29,0,112.29,174.05,112.29,174.05C112.29,174.05,112.29,-174.05,112.29,-174.05C112.29,-174.05,-112.29,0,-112.29,0Z" /></g></g></g></g><g transform="matrix(-0.4,0.693,-0.693,-0.4,1127.896,630.713)" id="i10"><g mask="url(#i1)" id="i11"><g id="i7" transform="matrix(1,0,0,1,681.89,462.135)"><path fill="#24c3a6" d="M294.784,194.334C294.784,194.334,-84.084,-461.885,-84.084,-461.885C-84.084,-461.885,-294.784,-340.236,-294.784,-340.236C-294.784,-340.236,168.32,461.885,168.32,461.885C168.32,461.885,294.784,194.334,294.784,194.334Z" /></g><g id="i8" transform="matrix(1,0,0,1,456.262,914.366)"><path fill="#13e5bf" d="M456.011,-121.648C456.011,-121.648,-456.011,-121.648,-456.011,-121.648C-456.011,-121.648,-456.011,121.648,-456.011,121.648C-456.011,121.648,341.012,121.648,341.012,121.648C341.012,121.648,456.011,-121.648,456.011,-121.648Z" /></g></g></g><g id="i12"><g transform="translate(282.677,627.543)"><animateTransform repeatCount="indefinite" type="translate" attributeName="transform" dur="3s" begin="0s" calcMode="spline" values="282.677 627.543; 402.677 419.697" keyTimes="0; 1" keySplines="0.333 0 0.667 1" fill="freeze" /><g transform="rotate(120) scale(0.8,0.8) translate(-112.54,-174.3)"><g id="i8" transform="matrix(1,0,0,1,112.541,174.3)"><path fill="#13e5bf" d="M-112.29,0C-112.29,0,112.29,174.05,112.29,174.05C112.29,174.05,112.29,-174.05,112.29,-174.05C112.29,-174.05,-112.29,0,-112.29,0Z" /></g></g></g></g><g transform="matrix(0.8,0,0,0.8,331.198,214.912)" id="i13"><g mask="url(#i2)" id="i14"><g id="i7" transform="matrix(1,0,0,1,681.89,462.135)"><path fill="#24c3a6" d="M294.784,194.334C294.784,194.334,-84.084,-461.885,-84.084,-461.885C-84.084,-461.885,-294.784,-340.236,-294.784,-340.236C-294.784,-340.236,168.32,461.885,168.32,461.885C168.32,461.885,294.784,194.334,294.784,194.334Z" /></g><g id="i8" transform="matrix(1,0,0,1,456.262,914.366)"><path fill="#13e5bf" d="M456.011,-121.648C456.011,-121.648,-456.011,-121.648,-456.011,-121.648C-456.011,-121.648,-456.011,121.648,-456.011,121.648C-456.011,121.648,341.012,121.648,341.012,121.648C341.012,121.648,456.011,-121.648,456.011,-121.648Z" /></g></g></g><g transform="matrix(0.8,0,0,0.8,355.928,370.609)" id="i15"><g mask="url(#i3)" id="i16"><g id="i17" transform="matrix(1,0,0,1,575.515,339.233)"><path fill="#01926a" d="M51.926,0.05C51.926,43.367,28.691,78.448,0,78.448C-28.691,78.448,-51.925,43.367,-51.925,0.05C-51.925,-43.265,-28.691,-78.347,0,-78.347C28.691,-78.448,51.926,-43.265,51.926,0.05Z" /></g><g id="i18" transform="matrix(1,0,0,1,52.175,339.233)"><path fill="#01926a" d="M51.926,0.05C51.926,43.367,28.69,78.448,-0.001,78.448C-28.691,78.448,-51.926,43.367,-51.926,0.05C-51.926,-43.265,-28.691,-78.347,-0.001,-78.347C28.69,-78.448,51.926,-43.265,51.926,0.05Z" /></g><g id="i19" transform="matrix(1,0,0,1,313.832,315.086)"><path fill="#01c38d" d="M-0.102,-314.836C-10.048,-314.836,-19.892,-312.295,-28.822,-307.316C-28.822,-307.316,-258.396,-178.455,-258.396,-178.455C-276.157,-168.495,-287.118,-150.101,-287.118,-130.081C-287.118,-130.081,-287.118,127.64,-287.118,127.64C-287.118,147.559,-276.157,165.953,-258.396,176.014C-258.396,176.014,-28.722,304.877,-28.722,304.877C-10.96,314.836,10.963,314.836,28.722,304.877C28.722,304.877,258.399,176.014,258.399,176.014C276.158,166.055,287.118,147.66,287.118,127.64C287.118,127.64,287.118,-130.183,287.118,-130.183C287.118,-150.101,276.158,-168.495,258.399,-178.556C258.399,-178.556,28.62,-307.316,28.62,-307.316C19.793,-312.295,9.844,-314.836,-0.102,-314.836Z" /></g><g id="i20" transform="matrix(1,0,0,1,302.652,313.831)"><path fill="#01926a" d="M239.265,-0.001C239.265,152.13,132.101,209.74,0.001,209.74C-132.1,209.74,-239.265,152.13,-239.265,-0.001C-239.265,-152.131,-132.1,-209.739,0.001,-209.739C132.101,-209.739,239.265,-152.029,239.265,-0.001Z" /></g><g id="i7" transform="matrix(1,0,0,1,299.581,201.853)"><path fill="#017c56" d="M-0.052,-86.51C130.292,-86.51,236.521,-32.269,242.014,109.96C242.116,106.087,242.32,102.212,242.32,98.234C242.32,-52.762,133.854,-109.96,-0.052,-109.96C-133.955,-109.96,-242.32,-52.762,-242.32,98.234C-242.32,102.212,-242.218,106.087,-242.015,109.96C-236.622,-32.269,-130.292,-86.51,-0.052,-86.51Z" /></g><g id="i8" transform="matrix(1,0,0,1,302.651,433.985)"><path fill="#00edc4" d="M0.001,70.49C-128.639,70.49,-233.566,26.274,-238.96,-89.598C-239.061,-86.446,-239.265,-83.295,-239.265,-80.041C-239.265,42.944,-132.099,89.598,0.001,89.598C132.101,89.598,239.265,42.944,239.265,-80.041C239.265,-83.295,239.163,-86.446,238.96,-89.598C233.566,26.274,128.641,70.49,0.001,70.49Z" /></g></g></g><g id="i21"><g transform="translate(751.062,948.48)"><animateTransform repeatCount="indefinite" type="translate" attributeName="transform" dur="3s" begin="0s" calcMode="spline" values="751.062 948.48; 511.062 948.48" keyTimes="0; 1" keySplines="0.333 0 0.667 1" fill="freeze" /><g transform="scale(0.8,0.8) translate(-112.54,-174.3)"><g id="i8" transform="matrix(1,0,0,1,112.541,174.3)"><path fill="#13e5bf" d="M-112.29,0C-112.29,0,112.29,174.05,112.29,174.05C112.29,174.05,112.29,-174.05,112.29,-174.05C112.29,-174.05,-112.29,0,-112.29,0Z" /></g></g></g></g><g transform="matrix(0.8,0,0,0.8,473.563,538.547)" id="i22"><g mask="url(#i4)" id="i23"><g id="i8" transform="matrix(1,0,0,1,156.795,51.926)"><path fill="#ffffff" fill-rule="evenodd" d="M-111.968,-51.926C-87.267,-51.926,-67.14,-28.691,-67.14,0.001C-67.14,28.689,-87.165,51.926,-111.968,51.926C-136.669,51.926,-156.795,28.689,-156.795,0.001C-156.795,-28.691,-136.77,-51.926,-111.968,-51.926ZM111.967,-51.926C136.668,-51.926,156.795,-28.691,156.795,0.001C156.795,28.689,136.769,51.926,111.967,51.926C87.266,51.926,67.139,28.689,67.139,0.001C67.241,-28.691,87.266,-51.926,111.967,-51.926Z" /></g></g></g></svg>